<svg width="120" height="120" viewBox="0 0 120 120" fill="none" xmlns="http://www.w3.org/2000/svg">
<g id="fluent:conference-room-24-regular">
<path id="Vector" d="M53.3675 3.76688L53.93 3.8625L101.743 15.1125C102.572 15.3066 103.324 15.7475 103.898 16.3771C104.473 17.0066 104.843 17.7953 104.96 18.6394L104.999 19.2188V100.781C105 101.634 104.742 102.466 104.26 103.169C103.778 103.872 103.095 104.412 102.299 104.719L101.748 104.888L53.9357 116.138C53.3636 116.272 52.7697 116.286 52.192 116.178C51.6143 116.07 51.0656 115.842 50.581 115.51C50.0965 115.177 49.6867 114.747 49.3781 114.247C49.0695 113.746 48.8687 113.187 48.7888 112.605L48.7494 112.031V7.96875C48.7487 6.87569 49.1723 5.82503 49.9309 5.03808C50.6895 4.25114 51.7239 3.78935 52.8163 3.75L53.3675 3.76688ZM57.1869 13.2956V106.704L96.562 97.4401V22.56L57.1869 13.2956ZM43.1244 15V23.4375H23.4369V96.5626H43.1244V105H19.2181C18.1987 105 17.2137 104.631 16.4454 103.961C15.6771 103.291 15.1774 102.365 15.0388 101.355L14.9994 100.781V19.2188C14.9994 18.1993 15.3686 17.2143 16.0387 16.446C16.7088 15.6777 17.6344 15.178 18.6444 15.0394L19.2181 15H43.1244ZM71.2494 54.375C72.7413 54.375 74.172 54.9677 75.2269 56.0226C76.2818 57.0775 76.8744 58.5082 76.8744 60C76.8744 61.4919 76.2818 62.9226 75.2269 63.9775C74.172 65.0324 72.7413 65.6251 71.2494 65.6251C69.7576 65.6251 68.3269 65.0324 67.272 63.9775C66.2171 62.9226 65.6244 61.4919 65.6244 60C65.6244 58.5082 66.2171 57.0775 67.272 56.0226C68.3269 54.9677 69.7576 54.375 71.2494 54.375Z" fill="white"/>
</g>
</svg>
